<?xml version="1.0" encoding="utf-8"?>
<!-- Generator: Adobe Illustrator 22.0.0, SVG Export Plug-In . SVG Version: 6.00 Build 0)  -->
<svg version="1.1" id="Layer_1" xmlns="http://www.w3.org/2000/svg" xmlns:xlink="http://www.w3.org/1999/xlink" x="0px" y="0px"
	 viewBox="0 0 25.5 25.5" style="enable-background:new 0 0 25.5 25.5;" xml:space="preserve">
<style type="text/css">
	.st0{opacity:0.2;fill:none;stroke:#000000;stroke-width:0.25;stroke-miterlimit:10;enable-background:new    ;}
	.st1{fill:#FFFFFF;}
	.st2{fill:#EDC00A;}
</style>
<g>
	<g>
		<circle class="st0" cx="12.8" cy="12.5" r="11.7"/>
		<circle class="st1" cx="12.8" cy="12.5" r="11.7"/>
	</g>
	<circle class="st1" cx="12.8" cy="12.5" r="11.6"/>
</g>
<g>
	<path class="st2" d="M19.2,18.9c-1.6,0-3.1,0-4.6,0c0-1.5,0-3,0-4.6c-1.2,0-2.3,0-3.5,0c0,1.5,0,3,0,4.6c-1.6,0-3.1,0-4.6,0
		c0-0.1,0-0.1,0-0.2c0-2.2,0-4.4,0-6.6c0-0.1,0.1-0.2,0.1-0.3c2.1-1.9,4.1-3.7,6.2-5.6c0.1,0,0.1-0.1,0.1-0.1
		c0.1,0.1,0.2,0.2,0.4,0.3c2,1.8,3.9,3.5,5.9,5.3c0.1,0.1,0.1,0.2,0.1,0.3C19.2,14.4,19.2,16.6,19.2,18.9
		C19.2,18.8,19.2,18.8,19.2,18.9z"/>
	<path class="st2" d="M12.8,5.6c-2.6,2.3-5.1,4.5-7.7,6.9c-0.3-0.3-0.5-0.6-0.8-0.9c2.8-2.5,5.6-5,8.4-7.5c2.8,2.5,5.6,5,8.4,7.5
		c-0.3,0.3-0.5,0.6-0.8,0.9C18,10.2,15.4,7.9,12.8,5.6z"/>
</g>
</svg>
