<?xml version="1.0" encoding="utf-8"?>
<!-- Generator: Adobe Illustrator 22.0.0, SVG Export Plug-In . SVG Version: 6.00 Build 0)  -->
<svg version="1.1" id="Layer_1" xmlns="http://www.w3.org/2000/svg" xmlns:xlink="http://www.w3.org/1999/xlink" x="0px" y="0px"
	 viewBox="0 0 19.9 24.7" style="enable-background:new 0 0 19.9 24.7;" xml:space="preserve">
<style type="text/css">
	.st0{fill:#E6E6E6;}
</style>
<g transform="translate(53.9) rotate(90)">
	<path class="st0" d="M3.9,45.2h12.7c0.6,0,1.1-0.5,1.1-1.1s-0.5-1.1-1.1-1.1l0,0H3.9l1.4-1.4c0.4-0.4,0.3-1.1-0.1-1.5
		c-0.4-0.3-1-0.3-1.4,0l-3.3,3.3l-0.1,0.1l0,0c0,0,0,0-0.1,0.1l0,0v0.1l0,0v0.1l0,0v0.1l0,0v0.1l0,0V44c0,0.1,0,0.2,0,0.3v0.1l0,0
		v0.1l0,0v0.1l0,0v0.1l0,0v0.1l0,0c0.1,0,0.1,0.1,0.1,0.1l0,0l0.1,0.1l3.3,3.3c0.4,0.4,1,0.5,1.6,0.1c0.4-0.4,0.5-1,0.1-1.6
		l-0.1-0.1L3.9,45.2z"/>
	<path class="st0" d="M15.4,35c-3,0-5.8,1.5-7.4,3.9c-0.3,0.5-0.2,1.2,0.3,1.5c0.5,0.3,1.2,0.2,1.5-0.3l0,0c2.1-3.1,6.3-3.9,9.4-1.8
		c3.1,2.1,3.9,6.3,1.8,9.4s-6.3,3.9-9.4,1.8c-0.7-0.5-1.3-1.1-1.8-1.8c-0.3-0.5-1-0.6-1.5-0.3c-0.5,0.3-0.6,1-0.3,1.5
		c2.8,4.1,8.3,5.2,12.4,2.4c4.1-2.8,5.2-8.3,2.4-12.4C21.2,36.5,18.4,35,15.4,35z"/>
</g>
</svg>
